<svg id="Layer_1" height="512" viewBox="0 0 32 32" width="512" xmlns="http://www.w3.org/2000/svg" data-name="Layer 1"><path d="m16 1a14.9819 14.9819 0 0 0 -12.92 22.5977l-2.0287 6.0859a1.0011 1.0011 0 0 0 .1992.9785 1.0166 1.0166 0 0 0 .9458.3184l7.3213-1.4639a14.8193 14.8193 0 0 0 6.4824 1.4834 15 15 0 0 0 0-30zm0 28a12.8592 12.8592 0 0 1 -5.89-1.4219 1.0438 1.0438 0 0 0 -.65-.09l-5.9663 1.1935 1.6308-4.8925a1.0017 1.0017 0 0 0 -.104-.8516 12.9906 12.9906 0 1 1 10.9795 6.0625z"/><path d="m22.6484 18.2217-2.414-.8057a1.9661 1.9661 0 0 0 -2.0205.4785l-2.0673 2.0669a13.0561 13.0561 0 0 1 -4.1143-4.1021l2.0732-2.0732a1.9635 1.9635 0 0 0 .4775-2.0219l-.8042-2.4131a1.9971 1.9971 0 0 0 -2.8955-1.0669s-2.3984 1.4468-2.4099 1.4569a1.1253 1.1253 0 0 0 -.4588 1.0167 15.955 15.955 0 0 0 6.6522 10.6322 16.6591 16.6591 0 0 0 6.4761 2.5725 1.0675 1.0675 0 0 0 1.1252-.4462l1.4477-2.4a2.0017 2.0017 0 0 0 -1.0674-2.8946zm-10.7666-8.2378.81 2.3882-1.6446 1.6446a15.6944 15.6944 0 0 1 -.9231-2.9469zm7.7217 9.33 2.3994.7695-1.0771 1.786a15.2706 15.2706 0 0 1 -2.9331-.933z"/></svg>