<svg width="91" height="45" viewBox="0 0 91 45" fill="none" xmlns="http://www.w3.org/2000/svg"><path d="M28.492 33.924c1.484-2.265 4.777-8.371 6.346-10.587 1.25-1.766 2.868-3.55 4.68-4.657.515-.323 1.03-.517 1.338-.517.514 0 .67.258.67.84.002 1.035-.665 2.329-2.67 5.437-1.064 1.628-2.116 3.34-2.552 5.24-.227.987-.233 2.04.171 2.885 1.689 3.537 6.406-.626 8.06-2.61a49.374 49.374 0 001.51-1.924c-.165.352-.31.712-.436 1.079a5.563 5.563 0 00-.254 1.623c.005 1.82.988 2.99 2.588 2.99 2.065 0 4.381-1.625 7.151-5.197-2.067 3.938-4.062 7.894-6.54 11.603-1.291 1.933-3.353 3.944-5.668 3.944-.89 0-1.64-.165-1.944-.797-.588-1.217 2.292-2.623.892-3.86-.172-.154-.41-.21-.64-.227-1.463-.104-2.494 1.192-2.635 2.547-.205 1.97 1.97 3.264 4.814 3.264 1.604 0 3.723-.392 5.324-1.11.123-.053.243-.109.364-.166 1.204.61 2.064 1.276 4.299 1.276 8.302 0 13.765-10.296 17.231-17.382l2.284-4.668 2.532-5.11h3.829l.429-.84H75.76c2.743-5.918 6.55-12.343 9.123-12.245 1.923.074-.377 3.24 1.214 3.854.665.257 1.67-.113 2.12-1.281.54-1.404.082-3.644-2.653-3.755-1.537-.063-3.597.736-5.383 1.83-2.604 1.544-4.893 4.055-6.921 7.406A87.393 87.393 0 0070.77 17h-2.88l-.43.84h2.956l-1.829 3.493-2.135 4.21-2.342 4.672c-1.836 3.705-3.366 6.764-4.494 8.587-.667.978-3.032 5.224-6.41 5.224-1.567 0-2.638-.418-2.93-.982 1.935-1.263 3.27-2.839 5.01-5.935C57.448 33.257 65.903 17 65.903 17h-4.571c-1.985 3.608-3.81 7.379-6.19 10.748-.461.65-.923 1.233-1.333 1.753-.514.454-1.028 1.039-1.645 1.428-.617.455-1.235.716-1.648.716-1.091 0-.808-1.354-.43-2.068 1.923-3.626 4.747-8.54 7.04-12.576h-4.933c-1.4 2.576-3.08 5.414-4.656 7.956-.964 1.555-2.108 2.987-3.313 4.35-1.492 1.688-2.367 2.403-3.09 2.403-.515 0-.877-.325-.878-.91 0-.325.205-.974.565-1.559 1.32-2.322 2.738-4.602 4.012-6.948.763-1.404 1.169-2.861.605-4.285-.42-1.059-1.372-1.59-2.476-1.59-1.71 0-3.476 1.02-5.867 3.465-.362.371-.511.467-.511.467C38.7 16.701 45.47 4.707 45.748 4.175h-4.819S29.935 25.037 24.143 33.924h4.349zm-5.174-2.151l-.053.034c-2.76 1.762-6.194-1.398-8.237-2.925l.402-.421c2.12-2.4 2.536-3.049 3.466-4.28 1.087-1.555 1.758-2.59 3.31-5.63 2.368-1.1 3.244-1.617 4.994-2.78 2.16-1.483 3.498-2.58 4.886-4.129 2.619-2.77 4.516-6.503 4.516-8.753C36.6.963 35.676 0 33.83 0c-.615 0-1.238.11-1.847.291-1.574.47-3.054 1.396-4.381 2.467-1.585 1.277-2.972 2.786-4.201 4.441-1.246 1.679-2.36 3.455-3.402 5.27-.524.91-1.03 1.83-1.525 2.754a265.912 265.912 0 00-1.105 2.089c-.035.068-.306.668-.35.668-2.401-.027-4.585-1.505-5.553-3.728-.968-2.222-.695-5.104.673-7.367.782-1.293 2.044-2.508 3.352-3.274 1.173-.686 2.737-1.097 4.043-.507 1.097.498 1.74-1.247-1.556-1.423-1.065-.057-2.12.261-3.105.66-.836.337-1.633.774-2.385 1.273a11.976 11.976 0 00-2.607 2.35c-.37.449-.705.925-1.002 1.425a10.561 10.561 0 00-.757 1.55 9.729 9.729 0 00-.481 1.646 9.019 9.019 0 00-.172 1.701c-.023 4.39 3.1 7.363 7.837 7.363h.874c-.726 1.746-1.038 2.393-1.867 3.947-.883 1.685-1.142 2.203-2.23 3.629-2.677-.649-3.656-.778-5.047-.778C3.17 26.45.015 28.267 0 30.539c-.013 1.949 1.889 3.184 4.83 3.184 1.033 0 2.169-.13 3.461-.585 1.447-.455 2.275-.91 4.292-2.145 1.274.797 2.556 1.624 3.923 2.259 1.473.684 3.189.83 4.784.51A5.897 5.897 0 0023.248 33c.415-.258 1.456-.929 1.39-1.516-.069-.608-.994.07-1.32.289zm.384-16.517c.93-2 1.445-3.161 1.548-3.355 1.082-2.191 2.677-5.282 3.809-7.083 1.54-2.507 3.13-3.92 4.566-3.92.769 0 1.18.514 1.18 1.542 0 2.12-1.385 5.271-3.439 7.977-1.491 2.064-2.674 3.095-4.475 4.515-1.39 1.034-2.11 1.421-4.066 2.26.361-.839.722-1.485.877-1.936zM7.937 31.773c-1.242.65-2.224.975-3.152.975-1.652 0-2.677-.975-2.67-2.34.01-1.558 1.357-2.661 3.367-2.661 1.443 0 2.987.583 4.888 1.883-.933 1.169-1.244 1.494-2.433 2.143z" fill="#0B1223"/><path d="M80.767 32.664c-1.186 0-1.76-.713-1.771-1.944-.01-1.101.218-2.497 1.178-4.568 5.602-1.163 10.014-4.228 9.981-7.197-.017-1.547-1.314-2.514-3.37-2.514-3.136 0-6.613 2.127-9.208 5.353-1.833 2.325-3.047 5.17-3.027 7.436.025 3.045 1.792 4.732 4.733 4.732 2.219 0 3.948-.789 5.703-2.335 1.333-1.174 2.75-3.313 2.871-3.496.186-.279-.08-.658-.4-.292-2.135 3.162-4.689 4.825-6.69 4.825zm3.275-12.935c1.473-1.741 2.239-2.322 3.061-2.322.515 0 .827.323.834.968.012 1.096-.793 2.774-2.168 4.194-.612.581-1.275 1.163-1.992 1.55-1.024.647-1.692.84-3.284 1.293 1.16-2.52 1.718-3.424 3.549-5.683z" fill="#0B1223"/></svg>